<?xml version="1.0" encoding="utf-8"?>
<!-- Svg Vector Icons : http://www.onlinewebfonts.com/icon -->
<!DOCTYPE svg PUBLIC "-//W3C//DTD SVG 1.1//EN" "http://www.w3.org/Graphics/SVG/1.1/DTD/svg11.dtd">
<svg version="1.1" xmlns="http://www.w3.org/2000/svg" xmlns:xlink="http://www.w3.org/1999/xlink" x="0px" y="0px" viewBox="0 0 1000 1000" enable-background="new 0 0 1000 1000" xml:space="preserve">
<metadata> Svg Vector Icons : http://www.onlinewebfonts.com/icon </metadata>
<g><path d="M79.6,543.2l2.2,2.4l365.4,376.8c27.2,28.1,72,28.5,99.5,0.6c9-9.2,9-9.2,45.2-45.9c45.2-45.9,45.2-45.9,99.5-100.9c48.4-49.1,48.4-49.1,90.4-91.7c13.7-13.9,32.3-32.7,54.6-55.4c17.6-17.9,36.2-36.8,54.7-55.7c10.5-10.7,10.5-10.7,18-18.3c5.6-5.7,5.6-5.7,6.8-6.9l2-2.2c46.2-53.5,72.1-122,72.1-194.4c0-163.1-130.7-295.6-292.2-295.6c-94.2,0-180.9,45.4-235.5,120.6h75.5C483.1,101.6,396.4,56.2,302.2,56.2C140.7,56.2,10,188.7,10,351.8C10,422.8,34.9,490.1,79.6,543.2z M75.6,343.4c0-119.2,95.1-215.6,212-215.6c68.1,0,130.8,32.8,170.6,87.6l40.2,55.3l40.2-55.3c39.8-54.7,102.5-87.6,170.6-87.6c116.9,0,212,96.4,212,215.6c0,53.1-18.9,103.1-52.6,142.2l2.1-2.3c-1.3,1.3-1.3,1.3-7.3,7.4c-7.9,8.1-7.9,8.1-19.1,19.5c-19.8,20.2-39.6,40.3-58.1,59.1c-0.1,0.1-0.1,0.1-0.2,0.2c-23.7,24.1-43.5,44.2-58,59c-44.8,45.4-44.8,45.4-96.4,97.7c-57.9,58.7-57.9,58.7-106.1,107.5c-38.6,39.1-38.6,39.1-48.2,48.9c10-10.2,26.6-10,36.2-0.1L124,480.9l2.3,2.6C93.8,444.7,75.6,395.6,75.6,343.4z"/></g>
</svg>